<?xml version="1.0" encoding="utf-8"?>
<svg version="1.1" xmlns:xlink="http://www.w3.org/1999/xlink" width="68px" height="72px" xmlns="http://www.w3.org/2000/svg">
  <g transform="matrix(1 0 0 1 -1015 -737 )">
    <path d="M 0 65.9814527701072  C 0 65.9814527701072  0 6.0152805922004875  0 6.0152805922004875  C 0 4.419931191103572  0.5985425408499856 2.88992273678149  1.6639536910530706 1.7618403424488118  C 2.7293648412561557 0.6337579481161335  4.174372457428633 0  5.681091336242387 0  C 5.681091336242387 0  62.31272139872452 0  62.31272139872452 0  C 63.059406922890325 -0.0012832404872348989  63.79899990946598 0.15337752508011515  64.48915893475281 0.4551353276742304  C 65.17931796003965 0.7568931302683458  65.80648788590969 1.1998216770066628  66.33476202403311 1.7585627808516433  C 66.86303616215653 2.3173038846966234  67.2820436493229 2.9808847758219654  67.56778755467263 3.7113127958720122  C 67.85353146002237 4.44174081592206  68.00040157108039 5.224671414793932  67.99999410455928 6.0152805922004875  C 67.99999410455928 6.0152805922004875  67.99999410455928 65.97818184088084  67.99999410455928 65.97818184088084  C 68.00080687259948 66.7689446844669  67.85435654537403 67.55211916926824  67.56902559722332 68.28289480357648  C 67.2836946490726 69.01367043788473  66.86508432116645 69.67770676806131  66.3371378866423 70.23701284261072  C 65.80919145211814 70.79631891716014  65.18226991774647 71.23991960103558  64.49224814568882 71.54243195772762  C 63.802226373631186 71.84494431441964  63.062642506565396 72.0004306985803  62.315810609660524 72  C 62.315810609660524 72  5.681091336242387 72  5.681091336242387 72  C 4.934779758038976 72.00000011695607  4.195780967406276 71.8443018522651  3.506317788356626 71.54180149236146  C 2.816854609306976 71.2393011324578  2.1904388853256154 70.79592921660776  1.6628604552650057 70.23701284261072  C 1.1352820252043963 69.67809646861367  0.7168804557752214 69.01458965521816  0.431560722779298 68.2844054235627  C 0.14624098978337466 67.55422119190725  -0.0004052045543651257 66.7716648830791  0 65.9814527701072  Z M 36.123452262579114 27.451641823886362  C 36.123452262579114 27.451641823886362  26.915634596076046 27.451641823886362  26.915634596076046 27.451641823886362  C 26.915634596076046 27.451641823886362  26.915634596076046 61.94618104187523  26.915634596076046 61.94618104187523  C 26.915634596076046 61.94618104187523  36.83127066601227 61.94618104187523  36.83127066601227 61.94618104187523  C 36.83127066601227 61.94618104187523  36.83127066601227 45.235640331993075  36.83127066601227 45.235640331993075  C 36.83127066601227 39.636004566192234  38.778541735862234 36.07200725971505  43.46126855839222 36.07200725971505  C 46.83654101661846 36.07200725971505  48.16563275375083 39.37745914654653  48.16563275375083 45.235640331993075  C 48.16563275375083 45.235640331993075  48.16563275375083 61.94618104187523  48.16563275375083 61.94618104187523  C 48.16563275375083 61.94618104187523  58.078179612751036 61.94618104187523  58.078179612751036 61.94618104187523  C 58.078179612751036 61.94618104187523  58.078179612751036 42.89236910626073  58.078179612751036 42.89236910626073  C 58.078179612751036 32.60618854815843  55.756903626103515 27.000007022510268  45.961813843309756 27.000007022510268  C 40.852541567842174 27.000007022510268  37.45254307854886 29.533097090886105  36.123452262579114 32.3476423482338  C 36.123452262579114 32.3476423482338  36.123452262579114 27.451641823886362  36.123452262579114 27.451641823886362  Z M 9.915636806866317 61.4945493616148  C 9.915636806866317 61.4945493616148  9.915636806866317 61.49782029084117  9.915636806866317 61.49782029084117  C 9.915636806866317 61.49782029084117  19.831272139872453 61.49782029084117  19.831272139872453 61.49782029084117  C 19.831272139872453 61.49782029084117  19.831272139872453 27.000007022510268  19.831272139872453 27.000007022510268  C 19.831272139872453 27.000007022510268  9.915636806866317 27.000007022510268  9.915636806866317 27.000007022510268  C 9.915636806866317 27.000007022510268  9.915636806866317 61.4945493616148  9.915636806866317 61.4945493616148  Z M 20.805648473770102 18.377399065069795  C 21.117622185122126 17.541127331375872  21.268694875749713 16.647298420793497  21.249999631534955 15.748369412130058  C 21.213303397458496 13.983893482564277  20.525537109328432 12.30477772584588  19.333990241485054 11.070616022403367  C 18.142443373641676 9.836454318960856  16.54185369518855 9.145373765306148  14.87500018423252 9.145373765306147  C 13.208146673276493 9.145373765306148  11.607556257893279 9.836454318960856  10.4160093900499 11.070616022403367  C 9.22446252220652 12.30477772584588  8.536696234076457 13.983893482564277  8.5 15.748369412130058  C 8.481304755785244 16.647298420793497  8.632376709482738 17.541127331375872  8.944350420834764 18.377399065069795  C 9.256324132186792 19.213670798763726  9.722914527401963 19.975539670160494  10.316739011527059 20.61829301502115  C 10.910563495652156 21.261046359881803  11.619659966151502 21.77173498626319  12.402412553057884 22.12039079489354  C 13.185165139964266 22.469046603523896  14.02580588832284 22.648644304393045  14.87500018423252 22.64864430439305  C 15.724194480142202 22.648644304393045  16.56483522850078 22.469046603523896  17.347587815407163 22.12039079489354  C 18.130340402313546 21.77173498626319  18.8394361358828 21.261046359881803  19.433260620007893 20.61829301502115  C 20.027085104132986 19.975539670160494  20.493674762418074 19.213670798763726  20.805648473770102 18.377399065069795  Z " fill-rule="nonzero" fill="#000000" stroke="none" transform="matrix(1 0 0 1 1015 737 )" />
  </g>
</svg>