<?xml version="1.0" encoding="utf-8"?>
<svg version="1.1" xmlns:xlink="http://www.w3.org/1999/xlink" width="73px" height="77px" xmlns="http://www.w3.org/2000/svg">
  <g transform="matrix(1 0 0 1 -1112 -735 )">
    <path d="M 36.5 0  C 56.65712455908458 0  73 17.238375465075173  73 38.5  C 73 59.76162453492483  56.65712455908458 77  36.5 77  C 16.342875440915424 77  0 59.76162453492483  0 38.5  C 0 17.238375465075173  16.342875440915424 0  36.5 0  Z M 51.42241708437602 23.176999926567078  C 50.05062540248037 23.202666594452847  47.945792426665626 23.975875541567802  37.80791759490967 28.4226256608963  C 34.25829242666562 29.978667373458542  27.16208353638649 33.203041975696884  16.52233382066091 38.092542131741844  C 14.794667097429436 38.817625452453896  13.888250106557583 39.52666745645305  13.806125104427338 40.21966747442882  C 13.666208437488725 41.39391746371985  15.059291591246923 41.85591725260019  16.951208194096886 42.481542229652405  C 17.20974986348301 42.56816723189937  17.477416551361483 42.654791056877  17.75116656223933 42.75104105472565  C 19.615708154936634 43.38949939111868  22.122042307009302 44.13704100701337  23.423875649770103 44.16591600577037  C 24.607083978752296 44.191582673656136  25.927167449146513 43.67825083682935  27.384125789006553 42.62591747442882  C 37.32429211338361 35.545125752687454  42.455583731643856 31.967831987732403  42.77800039450328 31.89083198706309  C 43.00612540356815 31.836290317432336  43.322457497008145 31.765707522320252  43.5353741645813 31.96783252557119  C 43.74829083215445 32.16674918898692  43.727001323403485 32.54533217800782  43.70570965607961 32.64799884955089  C 43.565792989141 33.26720719474058  38.10904161880414 38.62191796551148  35.280291597048446 41.39391803741455  C 34.39820828909676 42.256959684193134  33.774667500363044 42.86975044136246  33.64691750208537 43.010917107264206  C 33.361000845208764 43.32212544977666  33.06899918833126 43.62050134129822  32.78916585445404 43.90604301293691  C 31.055415876209736 45.66420960923036  29.75966642300288 46.98604294409355  32.862166364987694 49.14204291502635  C 34.352583060661956 50.17833462605874  35.54491563762228 51.03495940193534  36.73420731226604 51.8883760770162  C 38.03299893687169 52.82200110455354  39.32875110954047 53.75241420666377  41.007751067479454 54.913830836613975  C 41.43358440262576 55.20899750385434  41.841166930273175 55.51379136585941  42.23962525526683 55.81216637293498  C 43.75133361543219 56.95112467184663  45.11095951249202 57.97137211402878  46.789959470431015 57.810955444971725  C 47.76329278200865 57.71470544712308  48.773122314984604 56.748998545110226  49.2841223080953 53.86470691363017  C 50.491664019723736 47.04379047950109  52.87024918198586 32.27262581388156  53.42079083124797 26.18320914109548  C 53.45429389671578 25.677620506534975  53.433886977999165 25.169662321607273  53.35995610555013 24.668875416119896  C 53.31570182868745 24.264403198535245  53.12897548017403 23.89223723579198  52.83679254849752 23.62616616487503  C 52.40183419485887 23.250791169082124  51.72658375557513 23.170583259595634  51.42241708437602 23.176999926567078  Z " fill-rule="nonzero" fill="#000000" stroke="none" transform="matrix(1 0 0 1 1112 735 )" />
  </g>
</svg>